<svg width="30" height="26" viewBox="0 0 30 26" fill="none" xmlns="http://www.w3.org/2000/svg">
<path d="M22.1045 9.56164L16.1318 0.575343C15.8727 0.191781 15.4364 0 15 0C14.5636 0 14.1273 0.191781 13.8682 0.589041L7.89545 9.56164H1.36364C0.613636 9.56164 0 10.1781 0 10.9315C0 11.0548 0.0136363 11.1781 0.0545454 11.3014L3.51818 24C3.83182 25.1507 4.88182 26 6.13636 26H23.8636C25.1182 26 26.1682 25.1507 26.4955 24L29.9591 11.3014L30 10.9315C30 10.1781 29.3864 9.56164 28.6364 9.56164H22.1045ZM10.9091 9.56164L15 3.53425L19.0909 9.56164H10.9091ZM15 20.5205C13.5 20.5205 12.2727 19.2877 12.2727 17.7808C12.2727 16.274 13.5 15.0411 15 15.0411C16.5 15.0411 17.7273 16.274 17.7273 17.7808C17.7273 19.2877 16.5 20.5205 15 20.5205Z" fill="#38C54C"/>
</svg>
